<svg width="478" height="129" viewBox="0 0 478 129" fill="none" xmlns="http://www.w3.org/2000/svg">
<path d="M66.5754 106.412L28.0778 67.9253C26.5098 66.2937 25.6457 64.0862 25.6457 61.6229V6.69259C25.6457 3.49339 22.4456 0.294193 19.2455 0.294193H6.41295C3.21282 0.294193 0.0126953 3.49339 0.0126953 6.69259V70.6766C0.0126953 74.0678 1.26075 77.3309 3.66084 79.7303L48.4627 124.519C50.9588 127.015 54.2229 128.262 57.519 128.262H63.9193C67.4714 128.262 70.3195 125.383 70.3195 121.864V115.497C70.3195 112.202 69.0715 108.939 66.5754 106.444V106.412Z" fill="#9F4CF2"/>
<path d="M115.218 6.66061C115.218 3.42942 112.049 0.262207 108.817 0.262207H95.9847C92.7846 0.262207 89.5845 3.46141 89.5845 6.66061V61.5589C89.5845 64.0223 88.6244 66.2297 87.0244 67.8933L74.1279 80.7861C71.6318 83.2815 70.3837 86.5447 70.3837 89.8398V96.2382C70.3837 99.7894 73.2638 102.637 76.784 102.637H83.1842C86.4484 102.637 89.7445 101.389 92.2406 98.8936L111.441 79.6984C113.841 77.299 115.186 74.0358 115.186 70.6446V6.66061H115.218Z" fill="#9F4CF2"/>
<path d="M429.01 96.0053V32.3149H451.808C457.26 32.3149 461.724 33.0987 465.2 34.6663C468.676 36.1657 471.266 38.3466 472.97 41.2091C474.674 44.0034 475.526 47.2748 475.526 51.0233C475.526 53.4769 474.946 55.8964 473.788 58.2818C472.697 60.5991 471.13 62.6778 469.085 64.5179C467.109 66.29 464.757 67.5849 462.031 68.4028L477.366 96.0053H464.791L450.274 69.6295H440.869V96.0053H429.01ZM440.869 59.9175H452.523C456.204 59.9175 458.964 59.1337 460.804 57.5662C462.644 55.9986 463.564 53.9199 463.564 51.33C463.564 49.6262 463.156 48.1268 462.338 46.8318C461.52 45.4687 460.293 44.3783 458.657 43.5604C457.022 42.7426 454.943 42.3336 452.421 42.3336H440.869V59.9175Z" fill="#180C25"/>
<path d="M363.091 96.0053V32.3149H408.584V41.8225H374.439V58.0773H402.655V67.5849H374.439V86.4978H408.38V96.0053H363.091Z" fill="#180C25"/>
<path d="M296.457 96.0053V32.3149H320.583C325.899 32.3149 330.227 33.1668 333.567 34.8707C336.974 36.5746 339.496 38.8237 341.132 41.618C342.836 44.4123 343.688 47.5475 343.688 51.0233C343.688 53.6132 343.211 56.0327 342.256 58.2818C341.302 60.4627 339.871 62.4051 337.963 64.109C336.123 65.7447 333.771 67.0397 330.909 67.9938C328.114 68.8798 324.843 69.3228 321.094 69.3228H308.418V96.0053H296.457ZM308.418 59.713H320.277C322.798 59.713 324.877 59.3723 326.513 58.6907C328.217 57.941 329.477 56.9187 330.295 55.6238C331.181 54.2607 331.624 52.7272 331.624 51.0233C331.624 49.3195 331.181 47.8201 330.295 46.5251C329.477 45.2302 328.217 44.2079 326.513 43.4582C324.877 42.7085 322.832 42.3336 320.379 42.3336H308.418V59.713Z" fill="#180C25"/>
<path d="M247.814 96.0053V70.9585L226.447 32.3149H238.817L253.948 59.2019L267.34 32.3149H279.199L259.468 71.0608V96.0053H247.814Z" fill="#180C25"/>
<path d="M182.507 96.2096L159.914 32.3147H171.773L187.108 77.8079L201.624 32.3147H213.074L190.686 96.2096H182.507Z" fill="#180C25"/>
</svg>
