<svg width="478" height="129" viewBox="0 0 478 129" fill="none" xmlns="http://www.w3.org/2000/svg">
<path d="M66.5754 106.35L28.0778 67.8636C26.5098 66.232 25.6457 64.0245 25.6457 61.5611V6.63089C25.6457 3.43169 22.4456 0.232487 19.2455 0.232487H6.41295C3.21282 0.232487 0.0126953 3.43169 0.0126953 6.63089V70.6149C0.0126953 74.0061 1.26075 77.2692 3.66084 79.6686L48.4627 124.457C50.9588 126.953 54.2229 128.2 57.519 128.2H63.9193C67.4714 128.2 70.3195 125.321 70.3195 121.802V115.436C70.3195 112.141 69.0715 108.877 66.5754 106.382V106.35Z" fill="#9F4CF2"/>
<path d="M115.218 6.5989C115.218 3.36771 112.049 0.2005 108.817 0.2005H95.9847C92.7846 0.2005 89.5845 3.3997 89.5845 6.5989V61.4972C89.5845 63.9606 88.6245 66.168 87.0244 67.8316L74.1279 80.7244C71.6318 83.2198 70.3837 86.483 70.3837 89.7781V96.1765C70.3837 99.7276 73.2638 102.575 76.784 102.575H83.1842C86.4484 102.575 89.7445 101.327 92.2406 98.8319L111.441 79.6367C113.841 77.2373 115.186 73.9741 115.186 70.5829V6.5989H115.218Z" fill="#9F4CF2"/>
<path d="M429.01 95.9436V32.2532H451.808C457.26 32.2532 461.724 33.037 465.2 34.6045C468.676 36.1039 471.266 38.2849 472.97 41.1474C474.674 43.9417 475.526 47.2131 475.526 50.9616C475.526 53.4152 474.946 55.8347 473.788 58.2201C472.697 60.5373 471.13 62.6161 469.085 64.4562C467.109 66.2283 464.757 67.5232 462.031 68.341L477.366 95.9436H464.791L450.274 69.5678H440.869V95.9436H429.01ZM440.869 59.8558H452.523C456.204 59.8558 458.964 59.072 460.804 57.5045C462.644 55.9369 463.564 53.8582 463.564 51.2683C463.564 49.5645 463.156 48.0651 462.338 46.7701C461.52 45.407 460.293 44.3166 458.657 43.4987C457.022 42.6809 454.943 42.2719 452.421 42.2719H440.869V59.8558Z" fill="white"/>
<path d="M363.091 95.9436V32.2532H408.584V41.7608H374.439V58.0156H402.655V67.5232H374.439V86.4361H408.38V95.9436H363.091Z" fill="white"/>
<path d="M296.457 95.9436V32.2532H320.583C325.899 32.2532 330.227 33.1051 333.567 34.809C336.974 36.5129 339.496 38.762 341.132 41.5563C342.836 44.3506 343.688 47.4858 343.688 50.9616C343.688 53.5515 343.211 55.971 342.256 58.2201C341.302 60.401 339.871 62.3434 337.963 64.0473C336.123 65.683 333.771 66.978 330.909 67.9321C328.114 68.8181 324.843 69.2611 321.094 69.2611H308.418V95.9436H296.457ZM308.418 59.6513H320.277C322.798 59.6513 324.877 59.3106 326.513 58.629C328.217 57.8793 329.477 56.857 330.295 55.5621C331.181 54.199 331.624 52.6655 331.624 50.9616C331.624 49.2578 331.181 47.7584 330.295 46.4634C329.477 45.1685 328.217 44.1462 326.513 43.3965C324.877 42.6468 322.832 42.2719 320.379 42.2719H308.418V59.6513Z" fill="white"/>
<path d="M247.814 95.9436V70.8968L226.447 32.2532H238.817L253.948 59.1402L267.34 32.2532H279.199L259.468 70.9991V95.9436H247.814Z" fill="white"/>
<path d="M182.507 96.1479L159.914 32.253H171.773L187.108 77.7462L201.624 32.253H213.074L190.686 96.1479H182.507Z" fill="white"/>
</svg>
