<svg width="338" height="376" viewBox="0 0 338 376" fill="none" xmlns="http://www.w3.org/2000/svg">
<path d="M195.304 311.837L82.518 199.084C77.9241 194.304 75.3927 187.837 75.3927 180.62V19.6914C75.3927 10.3188 66.0174 0.946127 56.642 0.946127H19.0467C9.67128 0.946127 0.295898 10.3188 0.295898 19.6914V207.145C0.295898 217.08 3.9523 226.64 10.9838 233.669L142.239 364.886C149.552 372.197 159.115 375.852 168.772 375.852H187.522C197.929 375.852 206.273 367.417 206.273 357.107V338.456C206.273 328.802 202.617 319.242 195.304 311.931V311.837Z" fill="#180C25"/>
<path d="M337.81 19.5977C337.81 10.1313 328.529 0.852417 319.059 0.852417H281.464C272.089 0.852417 262.713 10.2251 262.713 19.5977V180.433C262.713 187.65 259.901 194.117 255.213 198.99L217.43 236.762C210.118 244.073 206.461 253.633 206.461 263.287V282.032C206.461 292.436 214.899 300.778 225.212 300.778H243.963C253.526 300.778 263.182 297.122 270.495 289.811L326.747 233.576C333.779 226.546 337.716 216.986 337.716 207.051V19.5977H337.81Z" fill="#180C25"/>
</svg>
