<svg width="338" height="375" viewBox="0 0 338 375" fill="none" xmlns="http://www.w3.org/2000/svg">
<path d="M195.304 310.985L82.518 198.232C77.9241 193.452 75.3927 186.984 75.3927 179.768V18.839C75.3927 9.46637 66.0174 0.09371 56.642 0.09371H19.0467C9.67128 0.09371 0.295898 9.46637 0.295898 18.839V206.292C0.295898 216.227 3.9523 225.787 10.9838 232.817L142.239 364.034C149.552 371.345 159.115 375 168.772 375H187.522C197.929 375 206.273 366.565 206.273 356.255V337.603C206.273 327.949 202.617 318.389 195.304 311.078V310.985Z" fill="white"/>
<path d="M337.81 18.7453C337.81 9.27893 328.529 0 319.059 0H281.464C272.089 0 262.713 9.37266 262.713 18.7453V179.58C262.713 186.797 259.901 193.264 255.213 198.138L217.43 235.91C210.118 243.22 206.461 252.781 206.461 262.434V281.18C206.461 291.583 214.899 299.925 225.212 299.925H243.963C253.526 299.925 263.182 296.27 270.495 288.959L326.747 232.723C333.779 225.694 337.716 216.134 337.716 206.199V18.7453H337.81Z" fill="white"/>
</svg>
